<mxfile host="app.diagrams.net" modified="2024-05-16T03:08:17.918Z" agent="Mozilla/5.0 (Windows NT 10.0; Win64; x64) AppleWebKit/537.36 (KHTML, like Gecko) Chrome/111.0.0.0 Safari/537.36" version="24.2.3" etag="1eGduIYLeFQ0GZXiA4HZ" type="github">
  <diagram name="第 1 页" id="0bLGjUkwZgaXch2aCbip">
    <mxGraphModel>
      <root>
        <mxCell id="0" />
        <mxCell id="1" parent="0" />
      </root>
    </mxGraphModel>
  </diagram>
</mxfile>
